<svg xmlns="http://www.w3.org/2000/svg" width="258" height="167" viewBox="0 0 258 167">
    <g fill="none" fill-rule="nonzero" stroke-width="6" transform="translate(6 3)">
        <g fill="#D6DEF5" stroke="#D6DEF5" transform="translate(11)">
            <ellipse cx="117.512" cy="29.146" rx="28.718" ry="29.146"/>
            <path d="M143.265 132.226H91.337v-20.1c0-11.709-6.635-22.229-16.923-27.377l-2.558-1.28 1.157-2.615c5.811-13.149 18.855-21.812 33.483-21.812h22.376c14.496 0 27.445 8.508 33.334 21.478l1.22 2.686-2.666 1.265a30.592 30.592 0 0 0-17.495 27.655v20.1z"/>
            <path d="M33.592 79.46h22.376c20.21 0 36.592 16.384 36.592 36.593v26.092c0 5.8-4.7 10.5-10.5 10.5H7.5c-5.799 0-10.5-4.7-10.5-10.5v-26.092c0-20.21 16.383-36.592 36.592-36.592zM179.032 78.675h22.376c20.21 0 36.592 16.383 36.592 36.593v26.092c0 5.799-4.701 10.5-10.5 10.5h-74.56c-5.8 0-10.5-4.701-10.5-10.5v-26.092c0-20.21 16.383-36.593 36.592-36.593z"/>
            <ellipse cx="44.793" cy="48.78" rx="28.718" ry="29.146"/>
            <ellipse cx="190.232" cy="47.994" rx="28.718" ry="29.146"/>
        </g>
        <ellipse cx="118.696" cy="36.221" stroke="#0C1631" rx="28.696" ry="29.221"/>
        <path stroke="#0C1631" d="M144.435 140.358H92.54v-20.144a30.675 30.675 0 0 0-16.917-27.428l-2.548-1.281 1.15-2.61C80.044 75.7 93.128 67 107.803 67h22.134c14.544 0 27.532 8.543 33.428 21.56l1.213 2.68-2.654 1.266a30.678 30.678 0 0 0-17.49 27.708v20.144z"/>
        <path stroke="#0C1631" d="M33.679 87h22.134c20.257 0 36.68 16.422 36.68 36.679v26.179c0 5.799-4.702 10.5-10.5 10.5H7.5c-5.799 0-10.5-4.701-10.5-10.5v-26.179C-3 103.422 13.422 87 33.679 87zM181.679 86h22.134c20.257 0 36.68 16.422 36.68 36.679v26.179c0 5.799-4.702 10.5-10.5 10.5H155.5c-5.799 0-10.5-4.701-10.5-10.5v-26.179C145 102.422 161.422 86 181.679 86z"/>
        <ellipse cx="45.696" cy="56.221" stroke="#0C1631" rx="28.696" ry="29.221"/>
        <ellipse cx="191.696" cy="55.221" stroke="#0C1631" rx="28.696" ry="29.221"/>
    </g>
</svg>
