<svg xmlns="http://www.w3.org/2000/svg" xmlns:xlink="http://www.w3.org/1999/xlink" width="100" height="100" viewBox="0 0 100 100">
    <defs>
        <circle id="a" cx="50" cy="50" r="50"/>
    </defs>
    <g fill="none" fill-rule="evenodd">
        <mask id="b" fill="#fff">
            <use xlink:href="#a"/>
        </mask>
        <circle cx="50" cy="50" r="48.75" stroke="#000" stroke-width="2.5"/>
        <g fill="#FFF" stroke="#000" stroke-width="2.5" mask="url(#b)">
            <g transform="matrix(-1 0 0 1 72 31)">
                <ellipse cx="21.607" cy="13.292" rx="12.964" ry="13.292"/>
                <path d="M21.607 87c5.905 0 14.4-6.373 18.3-14.294 3.981-8.087 3.307-17.789 3.307-23.97 0-12.235-9.674-22.153-21.607-22.153S0 36.501 0 48.736 9.674 87 21.607 87z"/>
            </g>
            <g transform="translate(-2 38)">
                <ellipse cx="21.607" cy="13.292" rx="12.964" ry="13.292"/>
                <path d="M21.607 87c5.905 0 14.4-6.373 18.3-14.294 3.981-8.087 3.307-17.789 3.307-23.97 0-12.235-9.674-22.153-21.607-22.153S0 36.501 0 48.736 9.674 87 21.607 87z"/>
            </g>
            <g transform="matrix(-1 0 0 1 102 39)">
                <ellipse cx="21.607" cy="13.292" rx="12.964" ry="13.292"/>
                <path d="M21.607 87c5.905 0 14.4-6.373 18.3-14.294 3.981-8.087 3.307-17.789 3.307-23.97 0-12.235-9.674-22.153-21.607-22.153S0 36.501 0 48.736 9.674 87 21.607 87z"/>
            </g>
        </g>
        <circle cx="50" cy="50" r="48.75" stroke="#000" stroke-width="2.5"/>
    </g>
</svg>
