<svg xmlns="http://www.w3.org/2000/svg" width="100" height="100" viewBox="0 0 100 100">
    <g fill="#000" fill-rule="nonzero">
        <path d="M58.606 72.349l-11.55 11.365-3.662-3.56a1.389 1.389 0 0 0-1.971 0c-.564.547-.564 1.369 0 1.917l4.647 4.518c.282.274.564.411.986.411.423 0 .705-.137.986-.41l12.535-12.187c.564-.548.564-1.37 0-1.917-.563-.548-1.408-.685-1.971-.137z"/>
        <path d="M18.75 88.627c1.806 1.526 3.75 2.913 5.694 4.022.556.416 1.25.694 1.806 1.11.278.138.417.277.694.277.417.277.834.416 1.25.694.278.138.695.277.973.554L30 95.7c.417.14.833.417 1.389.555.139 0 .278.139.417.139 3.055 1.248 6.25 2.08 9.583 2.774.139 0 .417 0 .555.139.556.138.973.138 1.528.277.278 0 .556.139.834.139.416 0 .833.138 1.25.138.416 0 .833 0 1.25.139h6.666c.417 0 .834 0 1.25-.139.417 0 .834-.138 1.25-.138.278 0 .556-.14.834-.14.555 0 .972-.138 1.527-.276.14 0 .417 0 .556-.14 3.333-.554 6.528-1.525 9.583-2.773.14 0 .278-.139.417-.139.417-.138.833-.416 1.389-.555l.833-.416c.278-.138.695-.277.972-.554.417-.14.834-.417 1.25-.694.278-.139.417-.277.695-.277.555-.278 1.25-.694 1.805-1.11 1.945-1.248 3.89-2.496 5.695-4.022 0 0 0-.139.139-.139C92.777 79.334 100 65.465 100 49.931 100 22.33 77.639 0 50 0S0 22.33 0 49.93c.417 15.673 7.5 29.543 18.75 38.697zM72.917 91.4c-.14.139-.278.139-.417.277-.417.278-.833.416-1.389.694-.278.138-.694.277-.972.554l-.833.417c-.417.138-.834.416-1.25.554-.14 0-.278.14-.417.14-.556.138-.972.415-1.528.554h-.139c-2.36.832-4.722 1.387-7.222 1.803-.139 0-.278 0-.417.139-.416.138-.972.138-1.389.277-.277 0-.555.139-.833.139-.417 0-.833.138-1.25.138-.417 0-.833 0-1.25.14H47.222c-.416 0-.833 0-1.25-.14-.416 0-.833-.138-1.11-.138-.279 0-.556-.139-.834-.139-.417 0-.972-.139-1.39-.139-.138 0-.277 0-.416-.138-2.5-.416-4.86-1.11-7.222-1.803 0 0-.139 0-.139-.14-.555-.138-.972-.415-1.528-.554-.139 0-.416-.139-.555-.277-.417-.139-.834-.416-1.25-.555l-.834-.416c-.277-.139-.694-.278-.972-.416-.416-.278-.972-.416-1.389-.694-.139 0-.277-.138-.416-.138A44.08 44.08 0 0 1 21.11 87.1c.278-15.95 13.333-28.849 29.306-28.849 15.972 0 29.027 12.9 29.305 28.85-2.083 1.525-4.305 3.05-6.805 4.299zm-22.5-88.488c25.972 0 47.222 21.22 47.222 47.156 0 13.731-5.833 26.075-15.278 34.674C81.25 71.013 71.39 59.778 58.472 56.45c6.945-3.05 11.945-10.124 11.945-18.308 0-11.095-9.028-19.972-20-19.972-10.973 0-20 8.877-20 19.834 0 8.183 4.86 15.118 11.944 18.308-12.917 3.328-22.778 14.701-23.889 28.294-9.305-8.6-15.278-20.943-15.278-34.674 0-25.937 21.112-47.018 47.223-47.018zm0 52.427c-9.584 0-17.223-7.767-17.223-17.337s7.778-17.199 17.223-17.199c9.583 0 17.222 7.767 17.222 17.199 0 9.57-7.778 17.337-17.222 17.337z"/>
    </g>
</svg>
