<svg xmlns="http://www.w3.org/2000/svg" width="72" height="99" viewBox="0 0 72 99">
    <g fill="#000" fill-rule="nonzero">
        <path d="M15.562 53.542c.301.305.753.458 1.054.458.302 0 .754-.153 1.055-.458l5.877-5.949a1.487 1.487 0 0 0 0-2.135c-.603-.61-1.507-.61-2.11 0l-4.822 4.881-1.054-1.068c-.603-.61-1.507-.61-2.11 0a1.487 1.487 0 0 0 0 2.136l2.11 2.135zM15.562 37.542c.301.305.602.458 1.054.458.452 0 .754-.153 1.055-.458l5.877-5.949a1.487 1.487 0 0 0 0-2.135c-.603-.61-1.507-.61-2.11 0l-4.822 4.881-1.054-1.068c-.603-.61-1.507-.61-2.11 0a1.487 1.487 0 0 0 0 2.136l2.11 2.135zM14.45 21.557c.3.295.75.443 1.05.443.3 0 .75-.148 1.05-.443l1.95-1.918 1.95 1.918c.3.295.75.443 1.05.443.3 0 .75-.148 1.05-.443.6-.59.6-1.475 0-2.065l-1.95-1.918 1.95-1.918c.6-.59.6-1.476 0-2.066-.6-.59-1.5-.59-2.1 0l-1.95 1.918-1.95-2.065c-.6-.59-1.5-.59-2.1 0-.6.59-.6 1.475 0 2.065l1.95 1.918-1.95 1.918c-.6.738-.6 1.623 0 2.213zM30.478 18h27.044C58.41 18 59 17.4 59 16.5s-.591-1.5-1.478-1.5H30.478C29.59 15 29 15.6 29 16.5s.591 1.5 1.478 1.5zM30.478 34h27.044C58.41 34 59 33.4 59 32.5s-.591-1.5-1.478-1.5H30.478C29.59 31 29 31.6 29 32.5s.591 1.5 1.478 1.5zM30.478 51h27.044C58.41 51 59 50.4 59 49.5s-.591-1.5-1.478-1.5H30.478C29.59 48 29 48.6 29 49.5s.591 1.5 1.478 1.5zM22.573 62.45c-.59-.6-1.478-.6-2.069 0l-1.922 2.1-2.07-2.1c-.59-.6-1.477-.6-2.069 0-.59.6-.59 1.5 0 2.1l1.922 1.95-1.922 1.95c-.59.6-.59 1.5 0 2.1.296.3.74.45 1.035.45.296 0 .74-.15 1.035-.45l1.922-1.95 1.921 1.95c.296.3.74.45 1.035.45.296 0 .739-.15 1.035-.45.59-.6.59-1.5 0-2.1l-1.922-1.95 1.922-1.95c.739-.6.739-1.5.147-2.1zM30.478 67h27.044C58.41 67 59 66.4 59 65.5s-.591-1.5-1.478-1.5H30.478C29.59 64 29 64.6 29 65.5s.591 1.5 1.478 1.5zM22.573 78.45c-.59-.6-1.478-.6-2.069 0l-1.922 1.95-2.07-1.95c-.59-.6-1.477-.6-2.069 0-.59.6-.59 1.5 0 2.1l1.922 1.95-1.922 1.95c-.59.6-.59 1.5 0 2.1.296.3.74.45 1.035.45.296 0 .74-.15 1.035-.45l1.922-1.95 1.921 1.95c.296.3.74.45 1.035.45.296 0 .739-.15 1.035-.45.59-.6.59-1.5 0-2.1l-1.922-1.95 1.922-1.95c.739-.6.739-1.65.147-2.1zM30.478 83h27.044C58.41 83 59 82.4 59 81.5s-.591-1.5-1.478-1.5H30.478C29.59 80 29 80.6 29 81.5s.591 1.5 1.478 1.5z"/>
        <path d="M72 97.511V1.49C72 .595 71.402 0 70.506 0H1.494C.598 0 0 .595 0 1.489V97.51C0 98.405.598 99 1.494 99h69.012c.747 0 1.494-.744 1.494-1.489zm-2.988-1.488H2.988V2.977h66.024v93.046z"/>
    </g>
</svg>
