<svg xmlns="http://www.w3.org/2000/svg" width="215" height="224" viewBox="0 0 215 224">
    <g fill="none" fill-rule="nonzero">
        <path fill="#D6DEF5" d="M116.47.501l94.069 41.076a6 6 0 0 1 3.599 5.498v105.342a6 6 0 0 1-3.357 5.386l-94.07 46.156a6 6 0 0 1-5.285 0l-94.069-46.156A6 6 0 0 1 14 152.417V47.075a6 6 0 0 1 3.599-5.498L111.668.5a6 6 0 0 1 4.802 0z"/>
        <path stroke="#0C1631" stroke-width="6" d="M105.738 15.048l94.069 41.076a6 6 0 0 1 3.599 5.498v105.375a6 6 0 0 1-3.314 5.365l-94.07 47.096a6 6 0 0 1-5.371 0L6.58 172.362a6 6 0 0 1-3.313-5.365V61.622a6 6 0 0 1 3.599-5.498l94.069-41.076a6 6 0 0 1 4.802 0z"/>
        <path fill="#FFF" stroke="#0C1631" stroke-width="6" d="M189.291 112.634v45.527l-48.636 23.331v-45.527l48.636-23.331z"/>
        <path stroke="#0C1631" stroke-width="6" d="M5 60l98.168 45L203 60M103.667 105v117"/>
        <path stroke="#0C1631" stroke-width="6" d="M67 89.154v57.617a5 5 0 0 1-7.193 4.493l-19-9.273A5 5 0 0 1 38 137.498V75M40 77l101-45M69 88l101-45"/>
    </g>
</svg>
